<svg width="142" height="45" viewBox="0 0 142 45" fill="none" xmlns="http://www.w3.org/2000/svg">
<path fill-rule="evenodd" clip-rule="evenodd" d="M17.4634 10.5424C18.5493 9.47783 19.2243 7.98576 19.2243 6.33563C19.2243 3.09763 16.6261 0.494286 13.4218 0.494286H2.88965V20.9992L17.2338 10.775V15.8605L4.98755 24.5885H14.237C14.237 24.5885 17.338 22.447 18.3828 21.7026C20.0182 20.5275 21.1073 18.5883 21.1073 16.3952C21.1073 13.8173 19.6196 11.589 17.4634 10.5424ZM118.83 14.5551V17.8308L123.894 17.8234C122.937 19.797 120.93 21.1556 118.608 21.1556C115.36 21.1556 112.726 18.4941 112.726 15.2127C112.726 11.9297 115.36 9.26818 118.608 9.26818C121.13 9.26818 123.268 10.8716 124.118 13.1245L127.114 10.4401C125.438 7.42971 122.266 5.39387 118.608 5.39387C113.235 5.39387 108.879 9.78901 108.879 15.2127C108.879 20.6348 113.235 25.0299 118.608 25.0299C123.983 25.0299 128.337 20.6348 128.337 15.2127C128.337 14.9859 128.327 14.782 128.315 14.5527L118.83 14.5551ZM102.254 5.7108V16.5459L88.7701 5.7108L88.761 24.5885H92.71V13.7493L106.212 24.6008L106.202 5.7108H102.254ZM75.105 5.7108V16.5459L61.622 5.7108L61.6121 24.5885H65.5611V13.7493L79.0629 24.6008L79.0539 5.7108H75.105ZM81.9015 24.5885H85.8512V5.7108H81.9113L81.9015 24.5885ZM34.4042 17.495C34.4042 19.4138 32.6515 20.9673 30.7537 20.9673C28.8551 20.9673 27.1025 19.4138 27.1025 17.495L27.1041 5.7108H23.165L23.1552 17.4713C23.1552 21.5921 26.6752 24.9308 30.7537 24.9308C34.8323 24.9308 38.3506 21.5872 38.3506 17.4664V5.7108H34.4115L34.4042 17.495ZM54.7837 5.7108V16.5459L41.3007 5.7108L41.2916 24.5885H45.2406V13.7493L58.7433 24.6008L58.7335 5.7108H54.7837ZM133.64 11.0845C133.64 9.73988 134.645 9.07983 135.741 9.07983C136.873 9.07983 137.961 9.56217 138.834 10.526L141.05 7.70978C139.724 6.3127 137.951 5.44056 135.533 5.44056C132.448 5.44056 129.947 7.96692 129.947 11.0845C129.947 16.41 137.93 16.4861 137.93 19.4523C137.93 20.8551 136.874 21.6502 135.811 21.6502C133.982 21.6502 132.667 20.6479 131.837 19.8093L129.667 22.5789C130.993 23.976 133.186 25.0709 135.747 25.0709C138.831 25.0709 141.5 22.5445 141.5 19.4285C141.5 13.6559 133.64 14.0425 133.64 11.0845Z" fill="white"/>
<path fill-rule="evenodd" clip-rule="evenodd" d="M8.44992 5.44924L0.5 11.0707V16.1519L15.6356 5.44924H8.44992Z" fill="#DA291C"/>
<path fill-rule="evenodd" clip-rule="evenodd" d="M105.971 26.0371L94.2902 16.7465L94.2918 26.0371H78.7969L67.1163 16.7465L67.1188 26.0371H58.4758L46.7951 16.7465L46.7968 26.0371L2.88965 26.038V44.4886L141.5 44.4943V26.038L105.971 26.0371Z" fill="#DA291C"/>
<path fill-rule="evenodd" clip-rule="evenodd" d="M41.3851 28.6274V29.8996C40.7493 29.0704 39.8227 28.5472 38.8428 28.3229L38.8223 32.2157C40.5306 32.2157 41.5236 33.5649 41.5236 35.1684C41.5236 36.8221 40.5314 38.0951 38.8223 38.0951L38.8329 41.9977C39.8489 41.7669 40.7911 41.1968 41.3392 40.2331H41.3851V41.6843H45.5882L45.5874 28.6274H41.3851ZM37.9735 32.3396L37.9833 28.2022C37.8932 28.1974 37.803 28.1949 37.7137 28.1949C34.2038 28.1949 31.7786 31.4019 31.7794 35.1425C31.7794 38.8839 34.2505 42.1159 37.7604 42.1159C37.835 42.1159 37.9079 42.1159 37.9833 42.111V37.9801C36.7928 37.6327 36.1202 36.5297 36.1202 35.1684C36.1202 33.8524 36.7895 32.7073 37.9735 32.3396ZM72.8233 30.2811H72.7775L72.7766 23.8939L68.5743 20.7105L68.5752 41.6843H72.7775V34.9894C72.7775 33.5285 73.2633 32.0198 74.7627 31.8934L74.7537 28.5594C74.0089 28.893 73.3813 29.4607 72.8233 30.2811ZM76.6102 28.1949C76.2555 28.1949 75.922 28.2257 75.6082 28.2889L75.609 31.9785C76.7118 32.3372 76.8642 33.6823 76.8642 34.9894V41.6843H81.0665V33.6921C81.0665 30.3831 79.6122 28.1949 76.6102 28.1949ZM89.4368 28.2379V32.2473C90.8771 32.4571 91.7022 33.7066 91.7022 35.1684C91.7022 36.6763 90.8763 37.8684 89.4351 38.066L89.4359 42.1062C93.0606 41.9207 96.1355 39.4281 96.1355 35.1684C96.1355 30.8876 93.0573 28.4266 89.4368 28.2379ZM88.5609 32.2473L88.5723 28.2055C84.9452 28.3869 81.8654 30.882 81.8654 35.1684C81.8654 39.4491 84.9591 41.9207 88.5625 42.1054L88.5601 38.0651C87.1221 37.8643 86.2987 36.6755 86.2987 35.1684C86.2987 33.7075 87.123 32.4587 88.5609 32.2473ZM101.128 35.6V28.6274H96.9262L96.927 36.4916C96.927 40.6137 99.4505 42.0025 102.791 42.1094V38.3972C101.434 38.2093 101.128 37.1047 101.128 35.6ZM105.331 35.6C105.331 37.1144 105.051 38.1955 103.669 38.3721L103.663 42.1102C107.006 42.0041 109.534 40.6185 109.534 36.4916V28.6274H105.331V35.6ZM61.8542 38.8207L61.8534 42.111C64.4613 42.0228 66.9635 40.6145 67.6108 37.6367H63.5699C63.1594 38.4053 62.6039 38.7527 61.8542 38.8207ZM61.8559 28.2152V31.2261C62.8391 31.3792 63.6846 32.1477 63.8698 33.2596H58.9981C59.2168 32.0935 60.005 31.4043 61.0046 31.2375L61.0054 28.199C58.4508 28.284 56.4344 29.5449 55.4283 31.7104V28.4484H54.6196C52.9802 28.4484 51.5947 29.1619 50.7868 30.7662H50.7409L50.7401 28.6274H46.5378L46.5386 41.6843H50.7409V36.4147C50.7409 34.1763 51.3177 32.47 53.6504 32.47C54.1567 32.47 54.6065 32.5178 55.0555 32.7097C54.84 33.4499 54.7253 34.2727 54.7261 35.1684C54.7261 39.4491 57.3742 41.8689 61.0054 42.0989L61.0046 38.7948C59.6363 38.5915 58.9284 37.6019 58.9284 35.9321H67.773V35.4478C67.7722 31.2051 65.6149 28.4662 61.8559 28.2152ZM127.617 38.8207L127.616 42.111C130.223 42.0228 132.726 40.6145 133.373 37.6367H129.332C128.922 38.4053 128.367 38.7527 127.617 38.8207ZM127.619 28.2152V31.2261C128.601 31.3792 129.447 32.1477 129.633 33.2596H124.759C124.979 32.0935 125.767 31.4043 126.767 31.2375V28.199C123.06 28.3229 120.487 30.9216 120.487 35.1684C120.487 39.4491 123.136 41.8689 126.767 42.0989V38.7948C125.399 38.5915 124.691 37.6019 124.691 35.9321H133.534V35.4478C133.534 31.2051 131.376 28.4662 127.619 28.2152ZM113.08 36.2625C113.458 36.3718 113.837 36.4552 114.184 36.5402L115.621 33.2029C115.094 33.0572 114.58 32.798 114.58 32.2408C114.58 31.58 115.413 31.3508 115.897 31.3508C116.613 31.3508 117.514 31.6051 118.161 31.9866L119.568 29.0347C118.345 28.4241 117.005 28.1949 115.667 28.1949C113.08 28.1949 110.447 29.6202 110.447 32.8264C110.447 35.1684 111.764 35.881 113.08 36.2625ZM116.474 33.3867L115.019 36.8026C115.44 36.9864 115.712 37.2496 115.712 37.7137C115.712 38.4263 114.928 38.7065 114.397 38.7065C113.357 38.7065 111.926 38.0441 111.071 37.3824L109.547 40.6145C110.978 41.5822 112.642 42.1159 114.328 42.1159C117.075 42.1159 119.916 40.6906 119.916 37.2561C119.916 34.8372 118.437 33.8192 116.474 33.3867ZM10.6572 28.6217L16.517 41.6843H19.0971L19.6788 40.1853L15.1471 28.612L10.6572 28.6217ZM20.6931 28.6217L18.3589 34.4622L20.1335 39.0289L21.8746 34.5294L24.6513 41.6843H27.2313L27.727 40.5789L23.1093 28.6217H20.6931ZM28.6954 28.6217L26.321 34.5829L28.2252 39.4678L33.0903 28.6217H28.6954Z" fill="white"/>
</svg>
