<svg width="24" height="24" viewBox="0 0 24 24" fill="none" xmlns="http://www.w3.org/2000/svg">
<circle cx="18.2588" cy="22" r="2" fill="#FFFFFF"/>
<circle cx="6.19434" cy="22" r="2" fill="#FFFFFF"/>
<path d="M2.77419 18L2.08676 17.2738C1.78939 17.5552 1.69366 17.9896 1.84515 18.37C1.99664 18.7504 2.36473 19 2.77419 19V18ZM7 14L7.68744 14.7262L8.13164 14.3058L7.95965 13.7188L7 14ZM3.48387 2L4.44352 1.71881L4.2329 1L3.48387 1L3.48387 2ZM1 1L1.70294e-08 1L-1.70294e-08 3L1 3L1 1ZM3.46163 18.7262L7.68744 14.7262L6.31256 13.2738L2.08676 17.2738L3.46163 18.7262ZM7.95965 13.7188L4.44352 1.71881L2.52422 2.28119L6.04035 14.2812L7.95965 13.7188ZM3.48387 1L1 1L1 3L3.48387 3L3.48387 1ZM2.77419 19H23V17H2.77419V19Z" fill="#FFFFFF"/>
<path d="M4 4H18L17.5 9L6 10" stroke="#FFFFFF" stroke-width="2"/>
</svg>
