<svg width="24" height="24" viewBox="0 0 24 24" fill="none" xmlns="http://www.w3.org/2000/svg">
<path fill-rule="evenodd" clip-rule="evenodd" d="M12.0001 11C14.2093 11 16.0001 9.20914 16.0001 7C16.0001 4.79086 14.2093 3 12.0001 3C9.79098 3 8.00012 4.79086 8.00012 7C8.00012 9.20914 9.79098 11 12.0001 11ZM12.0001 13C15.3138 13 18.0001 10.3137 18.0001 7C18.0001 3.68629 15.3138 1 12.0001 1C8.68641 1 6.00012 3.68629 6.00012 7C6.00012 10.3137 8.68641 13 12.0001 13Z" fill="white"/>
<path fill-rule="evenodd" clip-rule="evenodd" d="M18 14.0001C17.9873 14.016 16.3824 16 12.0001 16C7.60006 16 6.00012 14 6.00012 14C5.95504 14.0361 5.91127 14.0711 5.86876 14.1051L1.00012 18V24H23.0001V18L18 14.0001ZM21.0001 18.9612L17.9809 16.5459C17.8558 16.6206 17.7228 16.6955 17.5816 16.7698C16.3371 17.4248 14.5163 18 12.0001 18C9.4838 18 7.66306 17.4248 6.41859 16.7698C6.2774 16.6955 6.1444 16.6206 6.01934 16.5459L3.00012 18.9613V22H21.0001V18.9612Z" fill="white"/>
</svg>
